<svg width="25" height="25" viewBox="0 0 25 25" fill="none" xmlns="http://www.w3.org/2000/svg">
<path fill-rule="evenodd" clip-rule="evenodd" d="M5.53753 9.83594C5.59925 9.69863 5.69933 9.58207 5.82574 9.5003C5.95214 9.41852 6.09948 9.37501 6.25003 9.375H18.75C18.9006 9.37496 19.048 9.41845 19.1745 9.50022C19.3009 9.582 19.4011 9.69858 19.4628 9.83594C19.5245 9.97329 19.5453 10.1256 19.5225 10.2744C19.4997 10.4233 19.4344 10.5624 19.3344 10.675L13.0844 17.7063C13.0111 17.7889 12.9211 17.855 12.8204 17.9003C12.7197 17.9456 12.6105 17.969 12.5 17.969C12.3896 17.969 12.2804 17.9456 12.1797 17.9003C12.0789 17.855 11.989 17.7889 11.9157 17.7063L5.66565 10.675C5.5657 10.5624 5.50043 10.4232 5.4777 10.2744C5.45497 10.1255 5.47575 9.97327 5.53753 9.83594V9.83594Z" fill="white"/>
<path fill-rule="evenodd" clip-rule="evenodd" d="M21.875 1.5625H3.125C2.7106 1.5625 2.31317 1.72712 2.02015 2.02015C1.72712 2.31317 1.5625 2.7106 1.5625 3.125V21.875C1.5625 22.2894 1.72712 22.6868 2.02015 22.9799C2.31317 23.2729 2.7106 23.4375 3.125 23.4375H21.875C22.2894 23.4375 22.6868 23.2729 22.9799 22.9799C23.2729 22.6868 23.4375 22.2894 23.4375 21.875V3.125C23.4375 2.7106 23.2729 2.31317 22.9799 2.02015C22.6868 1.72712 22.2894 1.5625 21.875 1.5625ZM3.125 0C2.2962 0 1.50134 0.32924 0.915291 0.915291C0.32924 1.50134 0 2.2962 0 3.125L0 21.875C0 22.7038 0.32924 23.4987 0.915291 24.0847C1.50134 24.6708 2.2962 25 3.125 25H21.875C22.7038 25 23.4987 24.6708 24.0847 24.0847C24.6708 23.4987 25 22.7038 25 21.875V3.125C25 2.2962 24.6708 1.50134 24.0847 0.915291C23.4987 0.32924 22.7038 0 21.875 0L3.125 0Z" fill="white"/>
</svg>
